<svg height="31" viewBox="0 0 50 31" width="50" xmlns="http://www.w3.org/2000/svg"><g transform="matrix(-.95630476 .2923717 .2923717 .95630476 43.975015 -4.886303)"><path d="m9.39839995 16.0702299c-2.28073999 0-4.12961998 1.84888-4.12961998 4.12962s1.84887999 4.12962 4.12961998 4.12962c2.27963995-.00253 4.12708995-1.84998 4.12961995-4.12962 0-2.28074-1.84888-4.12962-4.12961995-4.12962z"/><path d="m48.0857297 10.7682299-4.6028399-2.10099995c-.15686-.06963-.28963-.18425-.38159-.32923l-3.9886-6.35799996c-.74283-1.18590999-2.04798-1.90112999-3.44729-1.8892884h-16.2086099c-1.26544-.00370159-2.46048.58182841-3.2329 1.5841484l-5.12941 6.71989996c-.11473.15356-.2772.26466-.462.3157l-8.57273991 2.34585995c-1.22429999.34089-2.06821999 1.45981-2.05970482 2.73064v3.135c0 1.56068 1.21985482 2.85868 2.78075481 2.85868h.74679c.22011-2.90026 2.52504999-5.2052 5.42530997-5.42531 3.24235995-.24607 6.07034995 2.18284 6.31641995 5.42531h18.5631599c.22011-2.90026 2.52505-5.20509 5.42531-5.42531 3.24236-.24607 6.07035 2.18284 6.31642 5.42531h1.3652099c1.5609 0 2.7807797-1.298 2.7807797-2.85868v-3.57874c.0087103-1.10506-.6308297-2.11266-1.6344697-2.57499z"/><path d="m39.7033998 16.0702299c-2.28074 0-4.12962 1.84888-4.12962 4.12962s1.84888 4.12962 4.12951 4.12962c2.27964-.00253 4.12709-1.84998 4.12973-4.12962 0-2.28074-1.84899-4.12962-4.12962-4.12962z"/></g></svg>