<svg height="47" viewBox="0 0 49 47" width="49" xmlns="http://www.w3.org/2000/svg"><g fill="#fff" transform="matrix(-.43837115 -.89879405 .89879405 -.43837115 17.267872 51.470164)"><path d="m32.6751561 1.5662109-22.68964831 25.0623827c-.90234375 1.0003125-2.28593749 1.4149609-3.58960941 1.0767969l-4.57359373-1.1794922c-.11515625-.0296484-.23332034-.0442578-.35191398-.0442578-.50574226 0-.97367192.2676953-1.23062499.7029687l-.00773443.01375c-.20410159.3471875-.2509375.7648438-.12933591 1.1489844.12160148.3837109.40046875.6982422.76742182.8649609l6.96996098 3.168086c.79749999.3622265 1.43644522 1.0011718 1.79867181 1.7982422l3.16808585 6.9703905c.1662891.3665234.4803907.6453907.8641016.7669923.3841407.1220311.8013672.0751952 1.1489843-.1284766.5508595-.3239845.8189845-.9753907.6552736-1.5937109l-1.241797-4.6496485c-.3536327-1.3114063.059297-2.710039 1.0682032-3.6192579l25.0524999-22.68019506c2.0973046-2.12437499 2.0865625-5.54339838-.0244923-7.65445314-2.1110546-2.11105465-5.530078-2.12179681-7.654453-.0240625z"/><path d="m24.4835936 7.33734371-15.27152331-4.34929691c-1.53097658-.4283984-3.17367191.00171886-4.29859373 1.12535159l-2.97988282 2.97988282 15.33597646 8.21132799zm10.3039062 9.91417959-8.1425781 7.3717187 8.4816015 15.6728515 2.9884766-2.9880469c1.1227734-1.1244921 1.5528907-2.766328 1.1257812-4.296875z"/></g></svg>