<?xml version="1.0" standalone="no"?>
<!DOCTYPE svg PUBLIC "-//W3C//DTD SVG 20010904//EN"
 "http://www.w3.org/TR/2001/REC-SVG-20010904/DTD/svg10.dtd">
<svg version="1.0" xmlns="http://www.w3.org/2000/svg"
 width="427.000000pt" height="427.000000pt" viewBox="0 0 427.000000 427.000000"
 preserveAspectRatio="xMidYMid meet">

<g transform="translate(0.000000,427.000000) scale(0.100000,-0.100000)"
fill="#000000" stroke="none">
<path d="M3123 3943 c9 -2 23 -2 30 0 6 3 -1 5 -18 5 -16 0 -22 -2 -12 -5z"/>
<path d="M1950 3420 c-390 -82 -708 -351 -845 -716 -66 -175 -85 -441 -46
-641 21 -110 37 -152 110 -303 61 -126 129 -219 223 -303 111 -99 184 -197
249 -334 32 -68 61 -123 64 -123 20 0 45 24 45 43 0 67 -119 294 -189 361 -17
16 -28 34 -24 39 3 6 1 7 -4 4 -24 -15 -229 230 -298 355 -89 163 -121 321
-112 552 6 171 22 243 77 362 123 265 332 468 583 565 151 58 227 72 392 71
206 0 310 -24 493 -115 202 -100 406 -318 492 -524 120 -289 116 -587 -13
-866 -39 -83 -112 -197 -128 -197 -6 0 -8 -4 -5 -8 2 -4 -36 -50 -86 -102 -50
-52 -118 -131 -151 -175 -59 -79 -167 -282 -167 -315 0 -19 30 -50 48 -50 6 0
40 60 75 133 36 72 76 146 89 164 48 63 146 161 155 155 4 -4 5 -3 1 2 -4 5
18 36 49 70 74 80 163 216 202 309 37 91 81 249 81 295 0 20 4 31 10 27 6 -4
10 46 10 142 0 99 -3 143 -10 133 -7 -11 -10 -5 -10 25 0 68 -47 231 -94 330
-63 133 -132 228 -246 339 -177 172 -347 258 -594 302 -112 19 -319 17 -426
-6z"/>
<path d="M2098 163 c56 -2 148 -2 205 0 56 1 10 3 -103 3 -113 0 -159 -2 -102
-3z"/>
</g>
</svg>
