<?xml version="1.0" standalone="no"?>
<!DOCTYPE svg PUBLIC "-//W3C//DTD SVG 20010904//EN"
 "http://www.w3.org/TR/2001/REC-SVG-20010904/DTD/svg10.dtd">
<svg version="1.0" xmlns="http://www.w3.org/2000/svg"
 width="723.000000pt" height="480.000000pt" viewBox="0 0 723.000000 480.000000"
 preserveAspectRatio="xMidYMid meet">

<g transform="translate(0.000000,480.000000) scale(0.100000,-0.100000)"
fill="#000000" stroke="none">
<path d="M4343 4573 c9 -2 23 -2 30 0 6 3 -1 5 -18 5 -16 0 -22 -2 -12 -5z"/>
<path d="M3170 4050 c-390 -82 -708 -351 -845 -716 -66 -175 -85 -441 -46
-641 21 -110 37 -152 110 -303 61 -126 129 -219 223 -303 111 -99 184 -197
249 -334 32 -68 61 -123 64 -123 20 0 45 24 45 43 0 67 -119 294 -189 361 -17
16 -28 34 -24 39 3 6 1 7 -4 4 -24 -15 -229 230 -298 355 -89 163 -121 321
-112 552 6 171 22 243 77 362 123 265 332 468 583 565 151 58 227 72 392 71
206 0 310 -24 493 -115 202 -100 406 -318 492 -524 120 -289 116 -587 -13
-866 -39 -83 -112 -197 -128 -197 -6 0 -8 -4 -5 -8 2 -4 -36 -50 -86 -102 -50
-52 -118 -131 -151 -175 -59 -79 -167 -282 -167 -315 0 -19 30 -50 48 -50 6 0
40 60 75 133 36 72 76 146 89 164 48 63 146 161 155 155 4 -4 5 -3 1 2 -4 5
18 36 49 70 74 80 163 216 202 309 37 91 81 249 81 295 0 20 4 31 10 27 6 -4
10 46 10 142 0 99 -3 143 -10 133 -7 -11 -10 -5 -10 25 0 68 -47 231 -94 330
-63 133 -132 228 -246 339 -177 172 -347 258 -594 302 -112 19 -319 17 -426
-6z"/>
<path d="M6888 2153 c12 -2 30 -2 40 0 9 3 -1 5 -23 4 -22 0 -30 -2 -17 -4z"/>
<path d="M6769 2093 c-13 -16 -12 -17 4 -4 16 13 21 21 13 21 -2 0 -10 -8 -17
-17z"/>
<path d="M7030 2096 c0 -2 8 -10 18 -17 15 -13 16 -12 3 4 -13 16 -21 21 -21
13z"/>
<path d="M7103 1950 c0 -30 2 -43 4 -27 2 15 2 39 0 55 -2 15 -4 2 -4 -28z"/>
<path d="M7039 1813 c-13 -16 -12 -17 4 -4 16 13 21 21 13 21 -2 0 -10 -8 -17
-17z"/>
<path d="M940 1783 c-26 -10 -30 -26 -30 -144 0 -145 -3 -149 -114 -149 -93 0
-129 -14 -180 -70 -67 -75 -81 -118 -80 -250 1 -124 14 -177 59 -236 14 -18
41 -38 60 -45 19 -7 35 -17 35 -21 0 -4 23 -8 52 -8 28 0 48 3 45 7 -9 9 89
44 140 50 32 4 51 0 76 -16 42 -26 69 -27 89 -3 25 29 28 51 12 90 -12 31 -15
97 -17 334 -1 163 0 295 3 293 6 -4 3 46 -6 103 -8 53 -85 87 -144 65z m-51
-439 c19 -24 21 -40 21 -149 0 -108 -2 -125 -20 -148 -40 -50 -125 -44 -153
10 -41 78 -28 234 23 285 39 39 99 40 129 2z"/>
<path d="M254 1760 c-32 -13 -54 -50 -54 -92 0 -54 20 -68 94 -68 74 0 94 12
103 62 7 49 -15 84 -64 97 -44 13 -51 13 -79 1z"/>
<path d="M4364 1485 c-3 -14 -10 -22 -15 -19 -5 3 -9 -114 -9 -278 0 -170 4
-277 9 -269 7 11 10 9 13 -10 3 -21 9 -24 53 -27 82 -4 79 -10 85 222 5 203 5
206 30 230 39 39 71 42 108 11 l32 -27 0 -207 c0 -148 3 -210 12 -219 7 -7 36
-12 65 -12 48 0 54 3 63 26 6 14 10 110 10 213 l0 187 28 26 c39 36 68 41 97
15 32 -29 45 -110 43 -277 0 -71 4 -137 10 -153 15 -37 52 -53 94 -41 l33 10
3 228 c1 136 -2 243 -8 266 -9 35 -45 80 -93 118 -19 14 -111 17 -102 2 3 -5
-1 -10 -10 -10 -8 0 -38 -11 -65 -25 l-50 -25 -54 29 c-30 16 -52 32 -49 35 4
3 -17 6 -45 6 -29 0 -52 -3 -52 -7 0 -5 -20 -16 -44 -26 -43 -18 -46 -18 -85
0 -23 11 -38 22 -35 26 4 4 -9 7 -29 7 -31 0 -38 -4 -43 -25z m-7 -187 c-2
-18 -4 -6 -4 27 0 33 2 48 4 33 2 -15 2 -42 0 -60z"/>
<path d="M5415 1500 c3 -6 -4 -10 -16 -10 -14 0 -41 -19 -70 -49 -78 -81 -107
-214 -78 -353 29 -136 104 -202 229 -203 126 0 197 70 228 226 13 69 14 93 4
152 -21 120 -94 227 -156 227 -10 0 -14 5 -11 10 4 6 -20 10 -65 10 -45 0 -69
-4 -65 -10z m114 -146 c41 -34 54 -83 50 -187 -3 -68 -8 -91 -25 -114 -41 -55
-106 -56 -147 -1 -16 21 -22 48 -25 114 -5 101 9 154 51 190 36 31 58 30 96
-2z"/>
<path d="M5820 1490 c-11 -11 -20 -29 -20 -40 0 -11 9 -46 20 -77 18 -51 20
-83 20 -275 l0 -218 58 0 c32 0 63 5 70 12 8 8 12 67 12 200 0 217 5 236 70
262 22 9 51 16 64 16 38 0 58 31 54 86 l-3 49 -65 0 c-53 0 -71 -4 -94 -22
-37 -30 -61 -29 -98 2 -36 30 -61 32 -88 5z"/>
<path d="M215 1493 c-72 -9 -75 -11 -75 -54 0 -43 9 -56 51 -78 44 -22 49 -48
49 -259 0 -141 3 -201 12 -210 14 -14 136 -16 156 -3 10 6 13 64 15 247 2 221
1 242 -18 279 -36 71 -84 91 -190 78z"/>
<path d="M1406 1490 c-41 -13 -103 -75 -134 -135 -24 -45 -27 -61 -26 -155 0
-217 57 -303 219 -327 69 -10 140 -3 220 22 69 22 84 44 57 88 -21 36 -30 37
-124 18 -43 -9 -68 -9 -99 -1 -51 14 -91 52 -87 83 5 38 51 52 190 55 117 3
129 5 143 25 18 26 20 114 3 168 -15 51 -70 114 -121 141 -47 23 -190 34 -241
18z m180 -134 c38 -38 42 -60 17 -88 -22 -24 -128 -26 -155 -1 -34 31 -17 86
35 108 48 21 66 18 103 -19z"/>
<path d="M2040 1480 c-58 -11 -106 -19 -107 -19 -7 -2 -2 -62 8 -91 11 -31 13
-32 53 -24 22 4 57 8 78 8 20 1 34 5 31 10 -4 5 17 7 46 4 57 -6 91 -29 91
-63 0 -38 -29 -52 -115 -57 -94 -6 -150 -30 -192 -84 -38 -51 -45 -144 -14
-208 40 -81 150 -109 263 -66 65 24 106 25 168 3 45 -16 49 -16 75 1 25 16 27
22 20 60 -4 22 -10 122 -14 221 -4 106 -12 192 -20 210 -20 48 -62 84 -115
100 -63 19 -125 18 -256 -5z m182 -347 c29 -26 24 -87 -9 -112 -56 -45 -107
-38 -129 15 -20 47 -2 84 46 101 49 17 70 16 92 -4z"/>
<path d="M6394 1492 c-12 -4 -36 -18 -55 -31 -86 -59 -124 -165 -117 -322 4
-80 9 -104 35 -154 16 -32 41 -68 55 -78 26 -20 157 -59 170 -51 4 2 33 9 65
15 32 6 77 19 101 31 35 16 42 25 42 48 0 16 -4 40 -10 54 l-9 25 -54 -18
c-76 -27 -129 -34 -160 -22 -37 14 -77 59 -77 85 0 48 10 51 172 56 l153 5 3
85 c4 106 -7 145 -59 203 -30 35 -53 50 -92 62 -52 15 -125 18 -163 7z m142
-133 c31 -29 38 -66 19 -95 -15 -23 -21 -25 -88 -22 -67 3 -72 5 -81 30 -12
35 8 84 43 103 32 19 78 12 107 -16z"/>
<path d="M3318 793 c56 -2 148 -2 205 0 56 1 10 3 -103 3 -113 0 -159 -2 -102
-3z"/>
<path d="M3243 463 c9 -2 23 -2 30 0 6 3 -1 5 -18 5 -16 0 -22 -2 -12 -5z"/>
<path d="M1898 453 c7 -3 16 -2 19 1 4 3 -2 6 -13 5 -11 0 -14 -3 -6 -6z"/>
<path d="M2188 453 c7 -3 16 -2 19 1 4 3 -2 6 -13 5 -11 0 -14 -3 -6 -6z"/>
<path d="M2892 343 l-2 -113 68 2 67 2 -62 3 -62 4 -4 107 -3 107 -2 -112z"/>
<path d="M4362 343 c-2 -102 0 -113 16 -113 12 0 13 3 5 8 -8 5 -13 44 -16
112 l-3 105 -2 -112z"/>
<path d="M5133 295 c0 -33 2 -45 4 -27 2 18 2 45 0 60 -2 15 -4 0 -4 -33z"/>
<path d="M4181 294 c0 -11 3 -14 6 -6 3 7 2 16 -1 19 -3 4 -6 -2 -5 -13z"/>
<path d="M2203 233 c15 -2 37 -2 50 0 12 2 0 4 -28 4 -27 0 -38 -2 -22 -4z"/>
<path d="M2618 233 c7 -3 16 -2 19 1 4 3 -2 6 -13 5 -11 0 -14 -3 -6 -6z"/>
<path d="M3848 233 c7 -3 16 -2 19 1 4 3 -2 6 -13 5 -11 0 -14 -3 -6 -6z"/>
<path d="M4078 233 c12 -2 32 -2 45 0 12 2 2 4 -23 4 -25 0 -35 -2 -22 -4z"/>
<path d="M4738 233 c7 -3 16 -2 19 1 4 3 -2 6 -13 5 -11 0 -14 -3 -6 -6z"/>
<path d="M5033 233 c15 -2 37 -2 50 0 12 2 0 4 -28 4 -27 0 -38 -2 -22 -4z"/>
</g>
</svg>
