<svg height="38" viewBox="0 0 118 38" width="118" xmlns="http://www.w3.org/2000/svg"><g fill="none"><path d="m7.57708158 37.9980132c-.30489172 0-.60241833-.0038743-.90491838-.0106295-.62665338-.0081055-1.25184212-.0622621-1.87043885-.1620255-.57681024-.0986179-1.13558431-.282065-1.65789125-.5442905-.51751766-.2600528-.98953538-.6010413-1.39797076-1.0099028-.4143474-.4040453-.75931054-.8726689-1.02121914-1.3873-.26479462-.5179759-.44804825-1.0731835-.54337733-1.6462826-.10294713-.6158013-.15864579-1.2384737-.1666157-1.8626477-.0063444-.2095106-.01465017-.9070846-.01465017-.9070846v-22.94837599s.00884614-.68685506.01470021-.88864686c.00763112-.62318525.0630059-1.24489131.16564502-1.85973701.09550505-.57466896.27890055-1.13147765.54383765-1.65115027.26094602-.51427569.603994-.98324921 1.01584541-1.38874046.4113885-.40934398.8849161-.75208834 1.40331447-1.01573407.52110652-.26138302 1.07882459-.44353611 1.65446887-.54035659.62062831-.10076562 1.24798745-.1552444 1.87681327-.16297919l.90294702-.01212956h102.83996308l.913734.01261633c.623106.00735046 1.244766.06134321 1.859692.16151888.581471.09803494 1.145002.28145902 1.672061.54424082 1.038539.53132254 1.883579 1.37192492 2.416678 2.40398777.260708.5160851.441275 1.06835189.535572 1.63805709.103861.61989053.161989 1.24648219.17392 1.87477727.002903.28133431.002903.58353027.002903.88427585.007905.37252955.007905.72710813.007905 1.08459741v20.79079418c0 .3609066 0 .7130712-.007905 1.0681167 0 .3230576 0 .6189951-.003903.9235753-.011673.6170834-.068832 1.2324909-.171019 1.8412893-.093375.5772332-.275631 1.1367745-.540375 1.6589982-.26376.5090454-.606742.9736097-1.016306 1.3765712-.408803.4110587-.881653.7540422-1.400372 1.0157639-.525599.2642413-1.0883.4483669-1.669159.546178-.61855.1002958-1.243799.1544558-1.870499.1620255-.293104.0067552-.600017.0106295-.898024.0106295l-1.084753.0019868z" fill="#fe0002"/><g fill="#fff"><path d="m24.034055 19.5102552c.0222067-1.7454217.9258219-3.3576604 2.3942627-4.2718656-.9305813-1.345852-2.4333664-2.1685595-4.0550147-2.2199388-1.7061062-.1813459-3.3601018 1.0338239-4.2295023 1.0338239-.8862254 0-2.2248041-1.0158189-3.6662324-.9857867-1.8965438.0620486-3.6217752 1.127517-4.54448236 2.8065814-1.9649421 3.4450369-.49927208 8.5080814 1.38297786 11.2927892.9417295 1.3635924 2.0423409 2.88676 3.4824687 2.8327451 1.4092516-.05919 1.9355797-.9100012 3.6366669-.9100012 1.6852985 0 2.1791045.9100012 3.6484525.8756581 1.5121926-.0248571 2.4649457-1.3696523 3.3736349-2.7461567.6766311-.9716094 1.1972976-2.0454492 1.5427132-3.1817428-1.7960256-.7692424-2.9638487-2.5513695-2.965945-4.5261059z"/><path d="m20.968071 11.47587c.7419129-.9700915 1.1074252-2.21697972 1.0189152-3.47587-1.1334779.12967022-2.180494.71972548-2.93243 1.65259711-.7425023.92040329-1.1186522 2.12453709-1.0456013 3.34718599 1.1486765.0128821 2.2393206-.5487879 2.9591161-1.5239131zm19.8714374 14.2806608h-4.7120672l-1.1315969 3.2434692h-1.9958443l4.4631939-12h2.0736122l4.4631939 12h-2.0298802zm-4.2240466-1.4966951h3.7350902l-1.841274-5.2639104h-.0515267zm17.3845382.3086318c0 2.779838-1.5891398 4.5658336-3.9872754 4.5658336-1.2395753.0607099-2.4071876-.5471674-3.00617-1.5650594h-.0453781v4.4307583h-1.9611765v-11.9047469h1.8983438v1.4878537h.0360702c.6255929-1.0115106 1.7944642-1.6191262 3.0422403-1.581451 2.4248876.0000099 4.0233457 1.7946904 4.0233457 4.5668117zm-2.0157991 0c0-1.811082-.9996576-3.0017622-2.5248987-3.0017622-1.4984469 0-2.5063465 1.2157568-2.5063465 3.0017622 0 1.802407 1.0078996 3.0094789 2.5063465 3.0094789 1.5252517 0 2.5248987-1.1819855 2.5248987-3.0094789zm12.0157991-.0000058c0 2.7798402-1.5891398 4.5658372-3.9872754 4.5658372-1.2395753.0607099-2.4071876-.5471678-3.00617-1.5650606h-.0453781v4.4307617h-1.9611765v-11.9047562h1.8983015v1.4878549h.0360703c.6255974-1.0115108 1.7944732-1.6191233 3.0422509-1.5814424 2.4249614 0 4.0233773 1.7946819 4.0233773 4.5668054zm-2.0157885 0c0-1.8110834-.9996682-3.0017645-2.5249093-3.0017645-1.4984469 0-2.5063465 1.2157576-2.5063465 3.0017645 0 1.8024084 1.0078996 3.0094812 2.5063465 3.0094812 1.5252517 0 2.5249093-1.1819863 2.5249093-3.0094812zm9.0125347 1.7166201c.1445313 1.2475725 1.4001795 2.0667083 3.1160291 2.0667083 1.6441193 0 2.8269771-.8191763 2.8269771-1.9440735 0-.9764892-.7134093-1.5611751-2.4026198-1.9618734l-1.6892106-.3927759c-2.3933937-.5579909-3.5045107-1.6383627-3.5045107-3.3914884 0-2.1706313 1.959821-3.6615789 4.7427144-3.6615789 2.7541762 0 4.6422668 1.4909476 4.7058206 3.6615789h-1.969068c-.1178711-1.2554848-1.1931124-2.0133183-2.7644518-2.0133183-1.5713393 0-2.6465701.7667488-2.6465701 1.8827307 0 .8894241.6867597 1.4127875 2.3667442 1.8134351l1.4360341.3403383c2.6742484.6104286 3.7853653 1.647288 3.7853653 3.4874485 0 2.3536565-1.9423974 3.8277868-5.0317769 3.8277868-2.890531 0-4.842144-1.4395028-4.9682231-3.7150094zm11.2483249-8.2850818v2.0951716h1.7549289v1.4391165h-1.7549289v4.8807707c0 .7582332.3513874 1.1115681 1.1228332 1.1115681.2083386-.0034852.4163401-.0175209.6231359-.0420486v1.430521c-.3468429.0621728-.6993796.0903306-1.0521643.0840384-1.8683986 0-2.5970537-.6732461-2.5970537-2.3902546v-5.074595h-1.3418222v-1.4391165h1.3418018v-2.0951716zm2.7549289 6.5c0-2.7634721 1.7580392-4.5 4.4994918-4.5 2.7506529 0 4.5005082 1.7364891 4.5005082 4.5 0 2.7710583-1.7406446 4.5-4.5005082 4.5-2.7588891 0-4.4994918-1.7289514-4.4994918-4.5zm7.0157995 0c0-1.8956835-.938376-3.0145257-2.5163182-3.0145257-1.5779421 0-2.5152913 1.1273695-2.5152913 3.0145257 0 1.90326.9373492 3.0135847 2.5152913 3.0135847 1.5779422 0 2.5163182-1.1103247 2.5163182-3.0135847zm2.9842005-4.40525h1.9141475v1.5157328h.0464371c.2669334-.975746 1.2485449-1.6472882 2.3518009-1.6089194.2312827-.0007355.4619272.0221416.6876145.0682031v1.7097781c-.2919802-.0812621-.5965658-.1185722-.9017434-.1104587-.590023-.0218011-1.1610342.192368-1.5631032.5862728-.402069.3939049-.5950264.9281919-.5282073 1.4625731v5.2820682h-2.0069461zm12.899866 6.2166216c-.241823 1.5944171-1.790061 2.6886284-3.770931 2.6886284-2.547644 0-4.128935-1.7118969-4.128935-4.4583146 0-2.7549448 1.589793-4.5416854 4.05337-4.5416854 2.422951 0 3.94663 1.6692608 3.94663 4.3323172v.6176857h-6.185379v.1089429c-.05775.6538819.167382 1.3011342.618129 1.7771171.450746.4759828 1.083664.7348194 1.737759.7106703.872345.0819736 1.694796-.4204072 2.022434-1.2353713zm-6.07676-2.6213613h4.37833c.032623-.5875663-.180635-1.1621351-.588394-1.585287-.407759-.4231518-.973047-.6565201-1.559672-.64388-.591265-.0035387-1.159444.2299389-1.578248.6485382-.418804.4185992-.653531.9876351-.652016 1.5806288zm-64.6608592-15.68320041c.7915005-.05686584 1.5667576.24462295 2.1123872.82148361s.8041192 1.3682889.7043213 2.1564494c0 1.9146682-1.0336051 3.0152571-2.8167085 3.0152571h-2.1622468v-5.99319011zm-1.2324968 5.14562361h1.1286417c.5656471.0338509 1.1164188-.1892731 1.4993865-.6074188s.5573595-.986796.4747534-1.5480581c.0765961-.5589329-.1003071-1.12289078-.4823253-1.53762647-.3820181-.41473569-.9291735-.6368477-1.4918146-.60558655h-1.1286417zm5.0796971-1.654568c-.0723776-.8629015.2904028-1.69800397.9361921-2.1550677s1.4629323-.45706373 2.1087216 0 1.0085697 1.2921662.9361921 2.1550677c.0737546.8638288-.2886946 1.700551-.9350565 2.1585987s-1.4646309.4580477-2.1109928 0-1.0088111-1.2947699-.9350565-2.1585987zm3.124287 0c0-1.0435345-.4110305-1.65378729-1.1323608-1.65378729-.7240863 0-1.1314141.61025279-1.1314141 1.65379799 0 1.051895.4073559 1.6574438 1.1314141 1.6574438.7213491 0 1.1323608-.6097397 1.1323608-1.6574545z"/><path d="m50.811 14h-.886l-.895-3.683h-.068l-.891 3.683h-.878l-1.193-5h.867l.775 3.815h.064l.89-3.815h.82l.89 3.815h.068l.772-3.815h.854z"/><path d="m53 9.09944641h.8911134v.778496h.069177c.2405568-.57317894.8026686-.92379813 1.3997377-.87309133.4623086-.03631475.9153382.14897774 1.2311763.50356019.315838.35458246.4602101.83997613.3923528 1.31913023v3.1724041h-.9256967v-2.9295384c0-.7875289-.3275516-1.17917661-1.0121653-1.17917661-.3135768-.01525897-.6178948.11331691-.8331712.35201911-.2152763.2387021-.3200408.5637239-.2868273.8898547v2.8668956h-.9256967z"/><path d="m58.056 8h.888v6h-.888z"/><path d="m60.0094226 11.4979245c-.0723145-.8629473.2904857-1.69806053.9362564-2.15512566.6457706-.45706512 1.4628714-.45706512 2.108642 0 .6457707.45706513 1.0085709 1.29217836.9362564 2.15512566.0736533.8638491-.288825 1.7005373-.9351523 2.1585591-.6463273.4580219-1.4645229.4580219-2.1108502 0-.6463273-.4580218-1.0088056-1.29471-.9351523-2.1585591zm3.123965 0c0-1.0435215-.4109881-1.65376682-1.1322441-1.65376682-.7240116 0-1.1312975.61024532-1.1312975 1.65377752 0 1.051882.407314 1.6574232 1.1312975 1.6574232.7212654 0 1.1322441-.6097321 1.1322441-1.6574339zm1.8666124 1.0518099c0-.8675785.6387638-1.3677352 1.7726034-1.4388177l1.2909586-.0752568v-.416016c0-.5090514-.3328129-.79649599-.9757045-.79649599-.5250602 0-.8888841.19494429-.9932844.53570339h-.9105919c.0961236-.82785753.8661498-1.3588513 1.9472812-1.3588513 1.194835 0 1.8687376.60154105 1.8687376 1.6196439v3.2931268h-.9054269v-.677333h-.0744159c-.3075188.4946405-.8543872.7837301-1.4315244.7567429-.404587.0425593-.8080955-.0899522-1.110771-.3647753-.3026754-.2748232-.4762678-.6663075-.4778618-1.0776709zm3.063562-.4118416v-.4029468l-1.163824.0752568c-.6563331.0444199-.9540073.2702011-.9540073.695101 0 .4337839.3720901.6862171.8837615.6862171.3028985.0310081.6052723-.0636274.8379016-.2622424.2326294-.198615.3755947-.4842026.3961682-.7913857zm1.936438-.3430723c0-1.3473926.6957775-2.20096066 1.7779828-2.20096066.5464598-.0250661 1.0582701.266432 1.3135161.74810426h.0631712v-2.3419641h.8453299v5.9287169h-.8100298v-.673701h-.066881c-.2745401.4776759-.792656.7642467-1.3450969.7439755-1.0896439.0000473-1.7779923-.8535396-1.7779923-2.2041709zm.8732295 0c0 .9044297.428244 1.4486613 1.1444539 1.4486613.7124716 0 1.1528056-.552082 1.1528056-1.4449587 0-.88871-.444957-1.4486613-1.1528056-1.4486613-.7115965 0-1.1444824.5479249-1.1444824 1.4449587zm7.1362176-.296955c-.0723776-.8629015.2904028-1.69800397.9361921-2.1550677s1.4629323-.45706373 2.1087216 0 1.0085697 1.2921662.9361921 2.1550677c.0737546.8638288-.2886946 1.700551-.9350565 2.1585987s-1.4646309.4580477-2.1109928 0-1.0088111-1.2947699-.9350565-2.1585987zm3.1242776 0c0-1.0435345-.4110211-1.65378729-1.1323514-1.65378729-.7240863 0-1.1314141.61025279-1.1314141 1.65379799 0 1.051895.4073559 1.6574438 1.1314141 1.6574438.7213397 0 1.1323514-.6097397 1.1323514-1.6574545zm2.8662753-2.39841909h.8911134v.778496h.069177c.2405568-.57317894.8026686-.92379813 1.3997377-.87309133.4623086-.03631475.9153382.14897774 1.2311763.50356019.315838.35458246.4602101.83997613.3923528 1.31913023v3.1724041h-.9256967v-2.9295384c0-.7875289-.3275516-1.17917661-1.0121653-1.17917661-.3135768-.01525897-.6178948.11331691-.8331712.35201911-.2152763.2387021-.3200408.5637239-.2868273.8898547v2.8668956h-.9256967zm8.8656282-1.09944641v1.21255036h1.1343718v.79506174h-1.1343718v2.4593338c0 .5009949.2259697.7203713.7403491.7203713.1316885-.000385.2632447-.0076584.3940227-.0217847v.7862353c-.1855646.0303251-.3735749.0464585-.5620756.0482322-1.1491272 0-1.6067409-.369267-1.6067409-1.2913831v-2.7010473h-.8311835v-.79506172h.8311835v-1.21250788zm2.1343718 0h.9061953v2.3781017h.0723322c.248989-.50915447.8138537-.81830052 1.4124902-.7730448.4539891-.02301263.8953504.14374672 1.2038667.4548565.3085164.3111099.4520542.7341662.3915167 1.153938v2.7861486h-.9151454v-2.5760492c0-.6892848-.3446353-1.038374-.9905846-1.038374-.3180634-.0243003-.6314242.0834159-.8563082.2943515-.2248841.2109356-.3383603.503582-.3100919.7997027v2.520369h-.9142298zm8.947653 4.5989782c-.242867.9059904-1.043962 1.4913608-1.901643 1.3895566-.585195.0169066-1.1476-.2485607-1.537996-.725967-.390395-.4774063-.5693142-1.1184881-.489285-1.753151-.0779036-.6364267.100345-1.2785357.488567-1.75997526.388221-.48143958.948215-.75483622 1.534903-.74936085 1.221127 0 1.957801.91305216 1.957801 2.42129491v.3307574h-3.098979v.0531191c-.027424.3564105.083798.7089464.306313.970908.222514.2619617.535675.4090423.862467.4050702.423736.0556734.836214-.174362 1.044097-.5822841zm-3.046652-1.5478901h2.216678c.022078-.3259677-.082649-.6469816-.288372-.8839336-.205724-.23695193-.493312-.3678052-.791893-.36031329-.302626-.0041611-.593963.12560999-.807922.35987579-.213959.2342657-.332406.5531697-.328471.8843711z"/></g></g></svg>