<svg height="33" viewBox="0 0 131 33" width="131" xmlns="http://www.w3.org/2000/svg"><g fill="none" fill-rule="evenodd"><path d="m15.7021186 6.22281546c0-3.98098251-2.0152798-5.94827948-6.09335943-5.94827948h-9.60875917v32.02919722h6.56207944v-11.1190233h3.04667973c4.07807963 0 6.09335943-1.967297 6.09335943-5.9477524zm-6.56207939 8.32727504c0 .7780628-.37475996 1.1438999-1.1717999 1.1438999h-1.40615987v-9.9287349h1.40615987c.79703994 0 1.1717999.36583711 1.1717999 1.14389991zm10.59328709-14.27571267-4.3124396 32.02919727h5.9529595l.4687199-4.6673225h4.1245197l.5156999 4.6673225h6.5150995l-4.3118997-32.02919727zm2.7183598 21.77995957 1.4531398-13.95557881 1.4531399 13.95557881zm24.7488998-6.3602416-5.6246395-4.0721782c-.7970399-.5492828-1.1248199-1.0521771-1.1248199-2.05901985v-3.02000117c0-.77753565.37476-1.1438999 1.1717999-1.1438999h.5157c.7964999 0 1.1717999.36636425 1.1717999 1.1438999v5.26193952h6.4211394v-5.85655661c0-3.98098252-2.0152798-5.94827949-6.0933595-5.94827949h-3.5623797c-4.0775396 0-6.0933594 1.96729697-6.0933594 5.94827949v5.07902101c0 2.2877998.6096599 3.6146182 2.6249397 5.0326324l5.6246396 4.0727054c.7970399.5487556 1.1248199 1.052177 1.1248199 2.0590198v3.8433982c0 .7775357-.37476 1.1438999-1.1717999 1.1438999h-.60912c-.7970399 0-1.1717999-.3663642-1.1717999-1.1438999v-6.2229209h-6.4216794v6.817538c0 3.9809825 2.0158198 5.9482795 6.0933594 5.9482795h3.6563397c4.0775397 0 6.0933595-1.967297 6.0933595-5.9482795v-5.902418c0-2.3789956-.6096599-3.6146183-2.6249398-5.0331596m17.6235465 0-5.6246395-4.0721782c-.7964999-.5492828-1.1248199-1.0521771-1.1248199-2.05901985v-3.02000117c0-.77753565.3753-1.1438999 1.1717999-1.1438999h.5157c.7970399 0 1.1717999.36636425 1.1717999 1.1438999v5.26193952h6.4211394v-5.85655661c0-3.98098252-2.0152798-5.94827949-6.0933595-5.94827949h-3.5618397c-4.0780796 0-6.0933594 1.96729697-6.0933594 5.94827949v5.07902101c0 2.2877998.6091199 3.6146182 2.6243997 5.0326324l5.6251795 4.0727054c.7965.5487556 1.1248199 1.052177 1.1248199 2.0590198v3.8433982c0 .7775357-.3752999 1.1438999-1.1717998 1.1438999h-.60966c-.7964999 0-1.1717999-.3663642-1.1717999-1.1438999v-6.2229209h-6.4211394v6.817538c0 3.9809825 2.0152798 5.9482795 6.0933594 5.9482795h3.6557997c4.0775397 0 6.0933595-1.967297 6.0933595-5.9482795v-5.902418c0-2.3789956-.60966-3.6146183-2.6249398-5.0331596m23.404084-15.69404309h-4.2184796c-4.0775397 0-6.0933595 1.96729698-6.0933595 5.94827949v7.1781037h6.5620794v-6.49176376c0-.77806279.3753-1.1438999 1.1717999-1.1438999h.9374399c.79704 0 1.1717999.36583711 1.1717999 1.1438999v6.49176376 6.3251866 6.4917637c0 .7780628-.3747599 1.1438999-1.1717999 1.1438999h-.9374399c-.7964999 0-1.1717999-.3658371-1.1717999-1.1438999v-6.4917637h-6.5620794v7.1781036c0 3.9809826 2.0158198 5.9482795 6.0933595 5.9482795h4.2184796c4.0780797 0 6.0933595-1.9672969 6.0933595-5.9482795v-7.1781036-6.3251866-7.1781037c0-3.98098251-2.0152798-5.94827949-6.0933595-5.94827949" fill="#000"/><path d="m106.93.274.047 6.635.063 6.217.031 3.026-.724-3.026-3.073-12.852h-6.703v12.852 6.326 12.852h5.672l-.094-9.289-.041-3.563-.053-4.581 1.097 4.581 3.075 12.852h6.375v-12.852-6.326-12.852z" fill="#000"/><g fill="#fe0002"><path d="m102.108 19.452h1.044l-1.097-4.581z"/><path d="m130.232815 15.9869763-7.96716-7.76112358c-.08208-.07959856-.19332-.12493285-.308879-.12493285h-6.70464c-.38988 0-.58482.46072282-.30834.72956566l4.4199 4.29568677h-6.76242v6.3257137h6.76242l-4.4199 4.2956868c-.27648.2688428-.08154.7295657.30834.7295657h6.70464c.115559 0 .226799-.0448072.308879-.1249329l7.96716-7.7611236c.17118-.1665771.17118-.4375285 0-.6041057"/><path d="m106.347 13.126.724 3.026-.031-3.026z"/><path d="m94.322 19.452h2.249v-6.326h-2.249z"/><path d="m84.4785647 13.1262777h-6.5620794-4.5192596-1.1507399c-.24138 0-.4374.1908257-.4374.4269857v2.7358712 2.7358712c0 .2356328.19602.4269857.4374.4269857h1.1507399 4.5192596 6.5620794 1.6405199 1.6405198v-6.3257138h-1.6405198z"/></g></g></svg>