<svg height="44" viewBox="0 0 74 44" width="74" xmlns="http://www.w3.org/2000/svg"><g fill="none" fill-rule="evenodd"><path d="m17.8175532 3.47515224c-2.4576481-2.45764817-12.90240086-3.07195221-16.28164909-3.37924823-.30715202 0-.61444805 0-.92160007.30715202-.30715202.30729602-.61430404.92174406-.61430404 1.22889608v27.64800189c0 .9216001.61444804 1.5360481 1.53604811 1.5360481h9.21600059c.6144481 0 1.2287521-.307152 1.5360482-.9216 0-.9216001 5.5296003-17.2032492 6.1440484-25.19035377 0-.30729602 0-.92160007-.6145921-1.22889609z" fill="#000" fill-rule="nonzero"/><circle cx="6.3" cy="25.2" fill="#fe0002" r="2.7"/><path d="m50.6880035 10.8479528c-3.0719522-.92160011-5.8367524-2.1503522-8.2944006-3.07195226-5.5296003-2.45764817-7.9872485-1.22881075-12.9024008 3.68640026-2.1503522 2.1503521-3.6864003 5.2224484-3.3792483 6.4512004 0 .3071521 0 .3071521.6144481.6144481 1.5360481.614448 3.6864002.9216001 5.8367524-2.4576482.307152-.307152.614448-.614448 1.228752-.614448.9216001 0 1.2287521-.307152 2.1503522-.6144481.614448-.307152 1.2287521-.614448 2.1503521-.9216h.6144481c.307152 0 .9216001.307152 1.2287521.307152 1.5361921 1.5361921 4.3009923 3.6865442 7.0657925 6.1441924 4.3008483 3.3792483 8.6015526 7.0656485 10.7520487 9.8304487h.307152c-2.1503521-6.1440484-5.8367524-16.5889452-7.3728005-19.3537453zm21.5039535-7.67995258c-11.9808008 0-18.7391533 3.07195221-19.0464493 3.07195221-.307152.30715203-.614448.61444805-.9216001.92160007 0 .30715202 0 .92160006.3071521 1.22875208 1.8432001 3.07195222 7.9872485 19.96804942 8.9088486 24.26875372.307152.614448.9216 1.2287521 1.5360481 1.2287521h9.2160006c.9216001 0 1.5360481-.6144481 1.5360481-1.5360482v-27.64800187c0-.92131207-.614448-1.53576011-1.5360481-1.53576011z" fill="#000" fill-rule="nonzero"/><path d="m55.6031559 33.2736503c-1.2287521-2.7648002-6.4512005-6.7583525-11.0592008-10.4447527-2.4575042-2.1504962-4.9151523-3.9936963-6.7583525-5.5297444-.307152.307152-.9216.307152-.9216.614448-.9216001.3071521-1.2287521.6144481-2.4576482.6144481-2.4575042 3.0719522-5.5296004 4.3007043-8.9087046 3.0719522-1.5360481-.307152-2.4576482-1.5360481-2.7648002-2.7648002-.6144481-3.0719522 2.1503521-7.3728005 4.3008483-9.52315265h-6.1440484c-1.2287521 6.14404845-3.3792483 14.13115295-4.9151524 18.43200125 1.2287521 1.2287521 2.4576482 2.7648002 3.3792482 3.3792483 5.8367525 4.9151523 12.5952489 9.8304486 13.824001 10.7520487.9216001.6144481 2.7648002 1.2287521 3.6864003 1.2287521h.9216l-4.9152963-4.9152963c-.6144481-.6144481-.6144481-1.5360482 0-2.1503522.614448-.614304 1.5360481-.614448 2.1503521 0l6.1440485 6.1440484c.614448.6144481 1.228752.3071521 1.8432001.3071521.9216001-.3071521 1.2287521-.9216001 1.5360481-1.8432002l-7.0656485-7.0656485c-.614448-.614448-.614448-1.5360481 0-2.1503521.614448-.6143041 1.5360481-.6144481 2.1503522 0l7.6799525 7.6799525c.307152.307152 1.5360481.307152 2.4576482 0 .307152-.307152.9216-.614448 1.228752-1.2287521l-8.6015526-8.6016966c-.614448-.614448-.614448-1.5360481 0-2.1503521.6144481-.6143041 1.5360482-.6144481 2.1503522 0l8.9088486 8.9088486c.6144481.307152 1.2287521 0 1.8432001-.307152.3071521-.307296.9216001-1.2288961.3071521-2.4576482z" fill="#000" fill-rule="nonzero"/><circle cx="67.5" cy="27.9" fill="#fe0002" r="2.7"/></g></svg>