<svg height="72" viewBox="0 0 69 72" width="69" xmlns="http://www.w3.org/2000/svg"><g fill="none" fill-rule="evenodd"><g fill-rule="nonzero"><path d="m30.3918083 43.7114888c-3.0051649 0-5.4639361 2.4587712-5.4639361 5.4639361 0 3.0051648 2.4587712 5.4639361 5.4639361 5.4639361 3.0051648 0 5.4639361-2.4587713 5.4639361-5.4639361 0-3.0051649-2.4587713-5.4639361-5.4639361-5.4639361z" fill="#fe0002"/><path d="m14 0v5.4639361h5.4639361l9.835085 20.7629572-3.8247553 6.5567233c-.2731968.8195904-.5463936 1.9123776-.5463936 2.731968 0 3.0051649 2.4587712 5.4639361 5.4639361 5.4639361h32.7836166v-5.4639361h-31.6908294c-.2731968 0-.5463936-.2731968-.5463936-.5463936v-.2733039l2.4587712-4.6443457h20.2165636c2.1855744 0 3.8247553-1.0927872 4.6443457-2.7319681l9.835085-17.75768513c.5463936-.54639361.5463936-.81959042.5463936-1.36598403 0-1.63918082-1.0927873-2.73196804-2.7319681-2.73196804h-40.4331271l-2.4587712-5.4639361z" fill="#000"/><path d="m57.7114888 43.7114888c-3.0051649 0-5.4639361 2.4587712-5.4639361 5.4639361 0 3.0051648 2.4587712 5.4639361 5.4639361 5.4639361 3.0051648 0 5.4639361-2.4587713 5.4639361-5.4639361 0-3.0051649-2.4587713-5.4639361-5.4639361-5.4639361z" fill="#fe0002"/></g><g transform="translate(0 29)"><path d="m0 10.1 42.42-1.059.02 2.531v22.543l-22.19 8.463-19.796-7.905z" fill="#fff"/><path d="m19.482 11.422 5.13-2.932 8.26 3.713v2.936l.76 6.234-5.788 1.917v-6.34l-.015-2.527z" fill="#f00" fill-rule="nonzero"/><g transform="translate(0 .078)"><path d="m25.312 9.062v-.01l7.579 3.394 7.609-2.852-20.25-7.594-20.25 7.594 20.25 7.593 7.579-2.842-7.579-3.124v-.007z" fill="#000" fill-rule="nonzero"/><path d="m20.25 2 2.502-1.129 19.668 8.092-2.674.981z" fill="#fff"/><g fill="#000" fill-rule="nonzero"><path d="m0 12.1249995v22.7812489l18.9843741 7.1204059v-22.7812489zm10.1249995 22.8647801-5.06249975-1.8984374v-2.7008436l5.06249975 1.8984374z"/><path d="m32.906 14.973v6.34l-5.062 1.899v-6.341l-6.328 2.374v22.782l18.984-7.121v-22.781z"/></g></g></g></g></svg>