<svg height="35" viewBox="0 0 35 35" width="35" xmlns="http://www.w3.org/2000/svg"><path d="m34.5572667 17.2787054c0-9.54279439-7.7358246-17.2787054-17.2785613-17.2787054-9.54279439 0-17.2787054 7.73591101-17.2787054 17.2787054 0 8.6243047 6.3185621 15.7724652 14.5788492 17.0687533v-12.0741129h-4.3871332v-4.9946404h4.3871332v-3.8067411c0-4.33046917 2.5796162-6.72248216 6.5263685-6.72248216 1.8904321 0 3.8678403.33746402 3.8678403.33746402v4.25217634h-2.1787202c-2.1464642 0-2.8159202 1.3319137-2.8159202 2.6983442v3.2412387h4.7921764l-.7660801 4.9946404h-4.0260963v12.0741129c8.2604166-1.2962881 14.5788491-8.4444486 14.5788491-17.0687533z" fill="#fff" transform="translate(.2)"/></svg>