<svg height="38" viewBox="0 0 130 38" width="130" xmlns="http://www.w3.org/2000/svg"><g fill="none" fill-rule="evenodd"><path d="m125.185185 38h-120.37037019c-2.69629629 0-4.81481481-2.09-4.81481481-4.75v-28.5c0-2.66 2.11851852-4.75 4.81481481-4.75h120.37037019c2.696296 0 4.814815 2.09 4.814815 4.75v28.5c0 2.66-2.118519 4.75-4.814815 4.75z" fill="#fe0002" fill-rule="nonzero"/><path d="m45.5039988 9.79199974c0 .76799996-.192 1.43999996-.672 1.91999996-.576.576-1.248.864-2.1119999.864-.864 0-1.536-.288-2.112-.864s-.864-1.248-.864-2.11199995c0-.86399998.288-1.53599996.864-2.11199995.576-.57599998 1.248-.86399998 2.112-.86399998.384 0 .7679999.096 1.1519999.288.384.19199999.672.38399999.864.67199998l-.48.47999999c-.384-.47999999-.8639999-.67199999-1.5359999-.67199999-.576 0-1.152.192-1.536.67199999-.48.38399999-.672.95999997-.672 1.63199995 0 .67199996.192 1.24799996.672 1.63199996s.96.672 1.536.672c.672 0 1.1519999-.192 1.6319999-.672.288-.288.48-.672.48-1.152h-2.1119999v-.76799995h2.7839999zm4.4159999-2.39999994h-2.592v1.82399996h2.4v.67199998h-2.4v1.82399996h2.592v.768h-3.3599999v-5.75999988h3.3599999zm3.1679999 5.0879999h-.768v-5.0879999h-1.6319999v-.67199998h4.0319999v.67199998h-1.632zm4.4159999 0v-5.75999988h.768v5.75999988zm4.0319999 0h-.768v-5.0879999h-1.632v-.67199998h3.9359999v.67199998h-1.6319999v5.0879999zm9.1199997-.768c-.576.576-1.2479999.864-2.1119999.864s-1.536-.288-2.112-.864c-.5759999-.576-.8639999-1.248-.8639999-2.11199995 0-.86399998.288-1.53599996.8639999-2.11199995.576-.57599998 1.248-.86399998 2.112-.86399998s1.5359999.288 2.1119999.86399998c.576.57599999.864 1.24799997.864 2.11199995 0 .86399995-.288 1.53599995-.864 2.11199995zm-3.6479999-.48c.384.384.96.672 1.536.672s1.152-.192 1.5359999-.672c.384-.384.672-.96.672-1.63199995 0-.67199999-.192-1.24799997-.672-1.63199996-.3839999-.38399999-.9599999-.67199998-1.5359999-.67199998s-1.152.19199999-1.536.67199998c-.384.38399999-.672.95999997-.672 1.63199996 0 .67199995.192 1.24799995.672 1.63199995zm5.5679999 1.248v-5.75999988h.864l2.7839999 4.51199988v-4.51199988h.768v5.75999988h-.768l-2.9759999-4.70399991v4.70399991zm-7.1999998 8.4479997c-2.304 0-4.1279999 1.728-4.1279999 4.1279999 0 2.304 1.8239999 4.1279999 4.1279999 4.1279999 2.3039999 0 4.1279999-1.7279999 4.1279999-4.1279999 0-2.4959999-1.824-4.1279999-4.1279999-4.1279999zm0 6.5279999c-1.248 0-2.304-1.056-2.304-2.496 0-1.4399999 1.056-2.4959999 2.304-2.4959999 1.2479999 0 2.3039999.96 2.3039999 2.4959999 0 1.44-1.056 2.496-2.3039999 2.496zm-8.9279998-6.5279999c-2.3039999 0-4.1279999 1.728-4.1279999 4.1279999 0 2.304 1.824 4.1279999 4.1279999 4.1279999s4.1279999-1.7279999 4.1279999-4.1279999c0-2.4959999-1.824-4.1279999-4.1279999-4.1279999zm0 6.5279999c-1.248 0-2.3039999-1.056-2.3039999-2.496 0-1.4399999 1.0559999-2.4959999 2.3039999-2.4959999s2.3039999.96 2.3039999 2.4959999c0 1.44-1.0559999 2.496-2.3039999 2.496zm-10.6559997-5.2799999v1.728h4.1279999c-.096.9599999-.48 1.7279999-.96 2.2079999-.576.576-1.536 1.248-3.1679999 1.248-2.5919999 0-4.5119999-2.016-4.5119999-4.6079999s2.016-4.6079999 4.5119999-4.6079999c1.344 0 2.3999999.576 3.1679999 1.248l1.248-1.248c-1.056-.96-2.4-1.7279999-4.3199999-1.7279999-3.4559999 0-6.4319998 2.8799999-6.4319998 6.3359998s2.9759999 6.3359998 6.4319998 6.3359998c1.9199999 0 3.2639999-.576 4.4159999-1.8239999 1.1520003-1.152 1.5359999-2.7839999 1.5359999-4.0319999 0-.384 0-.768-.096-1.056zm43.5839988 1.344c-.384-.96-1.3439999-2.592-3.4559999-2.592-2.1119999 0-3.8399999 1.632-3.8399999 4.1279999 0 2.304 1.728 4.1279999 4.0319999 4.1279999 1.824 0 2.9759999-1.1519999 3.3599999-1.8239999l-1.3439999-.96c-.48.672-1.056 1.152-2.016 1.152s-1.5359999-.384-2.0159999-1.248l5.4719998-2.3039999zm-5.5679998 1.3439999c0-1.5359999 1.2479999-2.3999999 2.1119999-2.3999999.672 0 1.344.384 1.536.864zm-4.5119999 3.9360003h1.824v-12h-1.824zm-2.8799999-7.0080002c-.48-.48-1.248-.96-2.208-.96-2.0159999 0-3.9359999 1.824-3.9359999 4.1279999 0 2.304 1.824 4.0319999 3.9359999 4.0319999.96 0 1.728-.48 2.112-.9599999h.096v.5759999c0 1.536-.864 2.4-2.208 2.4-1.0559999 0-1.8239999-.768-2.0159999-1.44l-1.536.672c.48 1.056 1.632 2.3999999 3.6479999 2.3999999 2.112 0 3.8399999-1.2479999 3.8399999-4.2239999v-7.2959998h-1.7279999zm-2.112 5.6639999c-1.2479999 0-2.3039999-1.056-2.3039999-2.496 0-1.4399999 1.056-2.4959999 2.3039999-2.4959999 1.248 0 2.208 1.056 2.208 2.4959999 0 1.44-.96 2.496-2.208 2.496zm23.4239994-10.6559997h-4.3199999v12h1.824v-4.5120002h2.4959999c2.016 0 3.9359996-1.44 3.9359996-3.7439999 0-2.304-1.9199996-3.7439999-3.9359996-3.7439999zm.096 5.7599998h-2.5919999v-4.1279999h2.5919999c1.344 0 2.112 1.152 2.112 2.016-.096 1.0559999-.864 2.1119999-2.112 2.1119999zm11.0399996-1.728c-1.344 0-2.688.576-3.168 1.824l1.632.672c.384-.672.96-.864 1.632-.864.96 0 1.824.576 1.92 1.536v.096c-.288-.192-1.056-.48-1.824-.48-1.728 0-3.456.9599999-3.456 2.6879999 0 1.632 1.44 2.6879999 2.976 2.6879999 1.248 0 1.824-.576 2.304-1.1519999h.096v.9599999h1.728v-4.6079998c-.192-2.112-1.824-3.36-3.84-3.36zm-.192 6.6239999c-.576 0-1.44-.288-1.44-1.056 0-.96 1.056-1.248 1.92-1.248.768 0 1.152.192 1.632.384-.192 1.152-1.152 1.92-2.112 1.92zm10.08-6.3359999-2.016 5.1839999h-.096l-2.112-5.1839999h-1.92l3.168 7.2959998-1.824 4.0319999h1.824l4.896-11.3279997zm-16.128 7.6800002h1.824v-12h-1.824z" fill="#fff" fill-rule="nonzero"/><g transform="translate(8.6 6.824)"><g fill="#fff" fill-rule="nonzero"><path d="m1.38399999.37631999c-.28799999.28799999-.38399999.76799998-.38399999 1.34399996v21.21599945c0 .576.19199999 1.056.47999999 1.344l.09599999.0960006 11.90399972-11.9040003v-.192z"/><path d="m17.3199996 16.5043196-3.9359999-3.9359999v-.288l3.9359999-3.93599992.096.096 4.7039998 2.68799992c1.344.768 1.344 2.016 0 2.7839999z"/><path d="m17.4159996 16.4083196-4.0319996-4.0319999-12.00000001 12c.47999999.4799996 1.15199997.4799996 2.01599995.0959997zm0-8.06399982-14.01599966-7.96799979c-.86399998-.47999999-1.53599996-.38399999-2.01599995.096l12.00000001 11.90399971z"/><path d="m17.3199996 16.3123196-13.91999966 7.8719998c-.76799998.4799999-1.43999997.3839999-1.91999995 0l-.096.096.096.096c.47999998.3839999 1.15199997.4799999 1.91999995 0z" opacity=".2"/><path d="m1.38399999 24.1843194c-.28799999-.288-.38399999-.768-.38399999-1.344v.096c0 .576.19199999 1.056.47999999 1.344v-.096zm20.73599941-10.5599998-4.7999998 2.688.096.096 4.7039998-2.688c.672-.384.96-.8639999.96-1.3439999 0 .48-.384.8639999-.96 1.2479999z" opacity=".12"/><path d="m3.39999994.47231999 18.71999946 10.65599971c.576.384.96.768.96 1.248 0-.48-.288-.96-.96-1.344l-18.71999946-10.65599971c-1.34399997-.76799998-2.39999994-.19199999-2.39999994 1.34399996v.096c0-1.43999996 1.05599997-2.11199994 2.39999994-1.34399996z" opacity=".25"/></g><path d="m.76.5 19.44 18.747" stroke="#ed1c24" stroke-width=".5"/><path d="m.648 24.945 19.083-19.11" stroke="#ed1c24" stroke-width=".5"/></g></g></svg>