<svg height="35" viewBox="0 0 35 35" width="35" xmlns="http://www.w3.org/2000/svg"><g fill="#fff" transform="translate(.2)"><path d="m17.2800014 23.0400018c-3.1824003 0-5.7600005-2.5776002-5.7600005-5.7600004 0-3.1824003 2.5776002-5.7600005 5.7600005-5.7600005 3.1824002 0 5.7600004 2.5776002 5.7600004 5.7600005 0 3.1824002-2.5776002 5.7600004-5.7600004 5.7600004z"/><path d="m24.4036819.10368001c1.8388802.08496001 3.0931203.37584003 4.1947204.80352006 1.1390401.43920004 2.1009601 1.03248008 3.0614402 1.99296016.9590401.96048008 1.5523201 1.92528015 1.9929602 3.06144024.42624 1.10016009.71712 2.35584019.80352 4.19472033.07344 1.6491791.0984625 2.2919656.1029167 5.771545l.0001285 2.7042711c-.0037689 3.4795794-.0257399 4.122366-.1030452 5.771545-.08496 1.8388802-.37728 3.0931203-.80352 4.1947204-.4392001 1.1390401-1.0339201 2.1009601-1.9929602 3.0614402-.9604801.9590401-1.9267201 1.5523201-3.0614402 1.9929602-1.1016001.42624-2.3558402.71712-4.1947204.80352-1.649179.07344-2.2919656.0984625-5.771545.1029167l-2.7042711.0001285c-3.4795794-.0037689-4.1223659-.0257399-5.771545-.1030452-1.83888014-.08496-3.09168024-.37728-4.19472033-.80352-1.13760009-.4392001-2.10096016-1.0339201-3.06144024-1.9929602-.96048008-.9604801-1.55232012-1.9267201-1.99296016-3.0614402-.42768003-1.1016001-.71712005-2.3558402-.80352006-4.1947204-.07304728-1.6403599-.0981935-2.2850621-.10284343-5.7159656l.0003-3.1388819c.00498961-3.1500812.02813194-3.8050685.10254343-5.3925136.08496001-1.84032014.37584003-3.09312024.80352006-4.19472033.43920004-1.13760009 1.03248008-2.10096016 1.99296016-3.06144024s1.92528015-1.55232012 3.06144024-1.99296016c1.10160009-.42768003 2.35440019-.71712005 4.19472033-.80352006 1.6403599-.07304728 2.2850621-.0981935 5.7159657-.10284343l3.1388818.0003c3.1500813.00498961 3.8050685.02813194 5.3925136.10254343zm-7.1236805 8.30304066c-4.9032004 0-8.87328073 3.97440033-8.87328073 8.87328073 0 4.9032004 3.97440033 8.8732807 8.87328073 8.8732807 4.9032004 0 8.8732807-3.9744003 8.8732807-8.8732807 0-4.9032004-3.9744003-8.87328073-8.8732807-8.87328073zm10.093595-3.40672067c-1.4190545 0-2.5736 1.15283818-2.5736 2.57198836 0 1.41915019 1.1527583 2.57377364 2.5736 2.57377364 1.4190544 0 2.5736-1.15283611 2.5736-2.57377364 0-1.41915018-1.1563328-2.57377363-2.5736-2.57198836z"/></g></svg>