<svg height="34" viewBox="0 0 131 34" width="131" xmlns="http://www.w3.org/2000/svg"><g fill="none" fill-rule="evenodd"><path d="m15.7021186 6.37459145c0-4.07807965-2.0152798-6.09335947-6.09335943-6.09335947h-9.60875917v32.81039722h6.56207944v-11.3902191h3.04667973c4.07807963 0 6.09335943-2.0152798 6.09335943-6.0928194zm-6.56207939 8.53037925c0 .7970399-.37475996 1.1717999-1.1717999 1.1717999h-1.40615987v-10.17089911h1.40615987c.79703994 0 1.1717999.37475997 1.1717999 1.1717999zm10.59328709-14.62390072-4.3124396 32.81039722h5.9529595l.4687199-4.7811596h4.1245197l.5156999 4.7811596h6.5150995l-4.3118997-32.81039722zm2.7183598 22.31117812 1.4531398-14.29595881 1.4531399 14.29595881zm24.7488998-6.5153695-5.6246395-4.1714996c-.7970399-.56268-1.1248199-1.0778399-1.1248199-2.10923984v-3.09365974c0-.79649993.37476-1.1717999 1.1717999-1.1717999h.5157c.7964999 0 1.1717999.37529997 1.1717999 1.1717999v5.39027958h6.4211394v-5.99939952c0-4.07807965-2.0152798-6.09335948-6.0933595-6.09335948h-3.5623797c-4.0775396 0-6.0933594 2.01527983-6.0933594 6.09335948v5.20289952c0 2.3435998.6096599 3.7027797 2.6249397 5.1553796l5.6246396 4.1720396c.7970399.56214 1.1248199 1.0778399 1.1248199 2.1092398v3.9371397c0 .7964999-.37476 1.1717999-1.1717999 1.1717999h-.60912c-.7970399 0-1.1717999-.3753-1.1717999-1.1717999v-6.3746994h-6.4216794v6.9838194c0 4.0780796 2.0158198 6.0933594 6.0933594 6.0933594h3.6563397c4.0775397 0 6.0933595-2.0152798 6.0933595-6.0933594v-6.0463795c0-2.4370198-.6096599-3.7027797-2.6249398-5.1559196m17.6235465 0-5.6246395-4.1714996c-.7964999-.56268-1.1248199-1.0778399-1.1248199-2.10923984v-3.09365974c0-.79649993.3753-1.1717999 1.1717999-1.1717999h.5157c.7970399 0 1.1717999.37529997 1.1717999 1.1717999v5.39027958h6.4211394v-5.99939952c0-4.07807965-2.0152798-6.09335948-6.0933595-6.09335948h-3.5618397c-4.0780796 0-6.0933594 2.01527983-6.0933594 6.09335948v5.20289952c0 2.3435998.6091199 3.7027797 2.6243997 5.1553796l5.6251795 4.1720396c.7965.56214 1.1248199 1.0778399 1.1248199 2.1092398v3.9371397c0 .7964999-.3752999 1.1717999-1.1717998 1.1717999h-.60966c-.7964999 0-1.1717999-.3753-1.1717999-1.1717999v-6.3746994h-6.4211394v6.9838194c0 4.0780796 2.0152798 6.0933594 6.0933594 6.0933594h3.6557997c4.0775397 0 6.0933595-2.0152798 6.0933595-6.0933594v-6.0463795c0-2.4370198-.60966-3.7027797-2.6249398-5.1559196m23.404084-16.0768246h-4.2184796c-4.0775397 0-6.0933595 2.01527983-6.0933595 6.09335948v7.35317932h6.5620794v-6.65009939c0-.79703993.3753-1.17179989 1.1717999-1.17179989h.9374399c.79704 0 1.1717999.37475996 1.1717999 1.17179989v6.65009939 6.4794595 6.6500994c0 .7970399-.3747599 1.1717999-1.1717999 1.1717999h-.9374399c-.7964999 0-1.1717999-.37476-1.1717999-1.1717999v-6.6500994h-6.5620794v7.3531794c0 4.0780796 2.0158198 6.0933594 6.0933595 6.0933594h4.2184796c4.0780797 0 6.0933595-2.0152798 6.0933595-6.0933594v-7.3531794-6.4794595-7.35317932c0-4.07807965-2.0152798-6.09335948-6.0933595-6.09335948" fill="#fff"/><path d="m106.93.281.047 6.797.063 6.368.031 3.1-.724-3.1-3.073-13.165h-6.703v13.165 6.48 13.165h5.672l-.094-9.514-.041-3.651-.053-4.692 1.097 4.692 3.075 13.165h6.375v-13.165-6.48-13.165z" fill="#fff"/><g fill="#fe0002"><path d="m102.108 19.926h1.044l-1.097-4.692z"/><path d="m130.232815 16.3769026-7.96716-7.95041933c-.08208-.08153999-.19332-.12797998-.308879-.12797998h-6.70464c-.38988 0-.58482.47195995-.30834.74735993l4.4199 4.40045958h-6.76242v6.4799995h6.76242l-4.4199 4.4004596c-.27648.2754-.08154.7473599.30834.7473599h6.70464c.115559 0 .226799-.0459.308879-.1279799l7.96716-7.9504194c.17118-.1706399.17118-.4481999 0-.6188399"/><path d="m106.347 13.446.724 3.099-.031-3.099z"/><path d="m94.322 19.927h2.249v-6.48h-2.249z"/><path d="m84.4785647 13.4464308h-6.5620794-4.5192596-1.1507399c-.24138 0-.4374.19548-.4374.4374v2.8025998 2.8025997c0 .24138.19602.4374.4374.4374h1.1507399 4.5192596 6.5620794 1.6405199 1.6405198v-6.4799995h-1.6405198z"/></g></g></svg>