<svg height="223" viewBox="0 0 263 223" width="263" xmlns="http://www.w3.org/2000/svg"><g fill="#ef0600" transform="translate(-4.875)"><path d="m55.4375097.1809632c6.6032211.33492697 16.8932407 1.18597092 26.1432529 6.67657701 16.2274159 9.63601369 26.1212424 31.05486809 23.7770984 49.81626909-2.002977 16.0545322-9.9598582 28.7927384-20.2718885 40.5536166-6.9278795 7.8954911-14.081369 15.5988121-19.1163251 25.0152011-2.5422401 4.765846-7.4011103 6.33616-12.4360664 5.951817-4.7983407-.36238-9.1619693-2.44881-11.1869571-7.236619-.7776893-1.899752-.9148213-4.000397-.3906906-5.98476 2.7513421-9.010085 8.4301123-16.3620063 14.3069791-23.5052849 5.541203-6.6985394 11.3905564-13.1500016 16.6346145-20.0626746 5.7337969-7.5660552 8.36408-16.2357223 6.7683016-25.8058487-1.6032441-9.8611475-9.3412657-17.5976575-19.2208761-19.2171213-2.3386408-.3843424-4.7102977-.6259291-7.0819546-.8290815-9.4150928-.7961379-16.6015984 3.0417957-22.3023793 10.4046985-3.9124085 5.0623388-8.2045022 9.8336755-12.3590288 14.7038431-.6716629.7545077-1.408159 1.4489688-2.2010737 2.0754491-3.0704979 2.5586225-6.55369699 3.3712322-10.23499276 1.7185597-3.68129576-1.6526724-5.78882383-4.9031112-5.54670572-8.7849697.25312347-4.0246143.97947779-8.2359091 2.56425086-11.9146152 5.2770742-12.2275798 13.25046372-22.2973514 25.27933142-28.65547324 7.2580406-3.7830276 15.022328-5.18313215 26.8751099-4.91958306zm-5.7739575 147.6698138c5.636082.066019 10.5379829 3.939166 12.5362803 9.902931 1.9375757 5.798717.3146491 11.338857-4.4161269 15.013945-.6513787.506149-1.3966001.891263-2.0369385 1.408417-4.0241957 3.262465-8.3740807 4.214247-12.9889334 1.45243-5.0067839-3.00389-7.3583715-7.59775-7.0271619-13.401968.4471328-7.982863 6.8063556-14.45828 13.9328804-14.375755z" transform="translate(85.875)"/><path d="m26.7436017.18046931c3.144391.15687446 8.0444004.5554899 12.4491682 3.1272024 7.7273411 4.51335544 12.438687 14.54560589 11.3224282 23.33314749-.9537987 7.5196874-4.7427899 13.4860604-9.6532806 18.9946686-3.2989903 3.6981225-6.7054139 7.3062352-9.1030121 11.7167221-1.2105905 2.2322465-3.5243383 2.9677562-5.9219365 2.7877364-2.2849241-.1697331-4.3628425-1.1469838-5.3271225-3.3895171-.3703282-.8898136-.4356292-1.8737224-.1860431-2.8031666 1.3101629-4.2201803 4.0143392-7.6637033 6.8128473-11.0095013 2.6386681-3.1374892 5.4240745-6.1592514 7.9212451-9.3970374 2.7303796-3.5438199 3.9828953-7.6045539 3.2230008-12.0870488-.7634495-4.6188045-4.4482218-8.2424626-9.1527983-9.0009937-1.1136385-.1800199-2.2429989-.2931753-3.3723594-.3883286-4.4833775-.3728983-7.9055231 1.4247287-10.6201808 4.8733952-1.8630517 2.3711189-3.9069058 4.605937-5.88525187 6.887046-.31983946.3533994-.67055189.6786739-1.04813036.9721074-1.46214184 1.198418-3.12080812 1.5790314-4.87380613.804946-1.75299801-.7740855-2.75658283-2.2965393-2.64128849-4.11474.12053499-1.8850653.46641801-3.8575688 1.22107186-5.5806162 2.51289252-5.7272037 6.30974472-10.44372442 12.03777709-13.42176749 3.4562098-1.77190991 7.1534897-2.4276966 12.7976716-2.3042544zm-1.830694 69.18558309c2.6838486.0314379 5.0180872 1.8757934 5.9696574 4.7156818.9226551 2.7612936.1498329 5.3994556-2.1029176 7.1494975-.3101804.2410237-.6650477.4244114-.9699708.6706747-1.9162837 1.5535552-3.9876575 2.0067846-6.1852064.6916334-2.3841829-1.4304235-3.5039865-3.6179759-3.3462677-6.3818893.2129204-3.8013635 3.2411218-6.8848954 6.6347051-6.8455981z" transform="matrix(.9781476 .20791169 -.20791169 .9781476 222.54072 135.550485)"/><path d="m20.331076.01136079c2.452625.122885 6.2746324.43513376 9.7103512 2.44964188 6.027326 3.53546176 9.7021759 11.39405793 8.831494 18.27763223-.7439629 5.8904218-3.6993761 10.5640806-7.5295588 14.879157-2.5732125 2.8968627-5.2302229 5.7232176-7.1003495 9.178099-.9442606 1.7485931-2.7489839 2.3247424-4.6191104 2.1837268-1.7822409-.1329575-3.4030173-.8984706-4.1551556-2.6551217-.288856-.6970206-.3397908-1.4677492-.1451136-2.1958138 1.021927-3.3058079 3.1311846-6.0032342 5.3140208-8.6241093 2.0581612-2.4576999 4.2307782-4.824747 6.1785712-7.3610127 2.1296961-2.7759922 3.1066584-5.9569005 2.5139407-9.4681882-.5954907-3.6180635-3.469613-6.4565957-7.1391827-7.05077843-.868638-.14101557-1.7495392-.22965393-2.6304403-.30419073-3.4970345-.29210368-6.1663081 1.11603746-8.283741 3.81749286-1.45318036 1.8573765-3.04738662 3.6079841-4.59049653 5.3948528-.24947478.2768295-.52303047.5316279-.81754168.7614841-1.14047063.9387608-2.43423033 1.236908-3.80156878.630541-1.36733845-.6063669-2.15013461-1.7989557-2.06020502-3.223213.09401729-1.4766344.36380604-3.0217622.95243605-4.3714826 1.96005616-4.48630961 4.92160088-8.18091752 9.38946616-10.51371793 2.6958436-1.38799609 5.5797219-1.90169567 9.9821838-1.80499928zm-2.2162208 53.98893111c2.0644989.0247012 3.8600671 1.4738377 4.5920442 3.7051785.7097347 2.1695879.115256 4.2424294-1.617629 5.6174623-.2386002.1893758-.5115751.3334661-.7461313.5269588-1.4740644 1.2206504-3.0674289 1.5767593-4.7578511.5434261-1.8339868-1.1239041-2.6953743-2.8426953-2.5740521-5.0143416.1637849-2.9867855 2.4931706-5.4095606 5.1036193-5.3786841z" transform="matrix(.95105652 -.30901699 .30901699 .95105652 .911344 119.293997)"/></g></svg>