<svg height="33" viewBox="0 0 35 33" width="35" xmlns="http://www.w3.org/2000/svg"><path d="m17.5766414.14192009c1.4256001 0 6.2596805.39744003 8.5392007 5.50224044.76176 1.71792013.58032 4.63536037.43056 6.97968057l-.00432.0864c-.01728.2592-.03168.4968-.0432.7344.108.0648001.29232.1296001.5774401.1296001.432-.02304.94896-.1728001 1.4875201-.4334401.2376-.12672.49536-.14976.66816-.14976.26208 0 .5169601.04176.7329601.1296.648.21456 1.0569601.6897601 1.0569601 1.2067201.0216.6465601-.5616001 1.2081601-1.7467202 1.6819202-.12816.04176-.30096.108-.49536.17136-.6480001.1944-1.6401601.5184-1.9195202 1.1664001-.1296.32256-.08784.75456.1728 1.2499201l.0216001.0216c.0864.19584 2.1974401 5.0040004 6.8990405 5.7801604.3672.06336.6264.3888.6048.7329601 0 .108-.0216.21456-.0648.324-.3456.8193601-1.8331201 1.4227201-4.5302403 1.8302401-.08496.1310401-.1728.5400001-.23616.8208001-.04176.25776-.10656.5184001-.1929601.7963201-.10944.39024-.3888.5832-.7992.5832h-.0432c-.1944 0-.4507201-.04464-.7747201-.10656-.5184-.108-1.1016001-.1944-1.8331201-.1944-.4320001 0-.8625601.0216-1.3147201.10656-.8640001.14976-1.6171202.6681601-2.4811202 1.2729601-1.2283201.8625601-2.6294402 1.8547202-4.7433604 1.8547202-.0864 0-.17136-.0216-.2592-.0216h-.21456c-2.1139202 0-3.4948803-.9720001-4.7217604-1.8547202-.8625601-.6048-1.5940801-1.1217601-2.45808021-1.2729601-.45216004-.0648-.90576008-.10656-1.33632011-.10656-.77760006 0-1.37952011.12816-1.83168015.21456-.30384002.06192-.56304004.10656-.77760006.10656-.53856004 0-.75312006-.32256-.83952006-.6048-.08784001-.27648-.12960001-.5601601-.19440002-.8164801-.06624-.26064-.15120001-.71136-.23904002-.8208001-2.76192022-.31968-4.24800034-.92448-4.59216036-1.7654401-.04464001-.09072-.07488001-.216-.07920001-.324-.0216-.34992.23760002-.6696001.60480005-.7329601 4.70016037-.7776 6.81120054-5.5857604 6.89904055-5.7888004l.02304-.04176c.25920002-.4968001.32256002-.9288001.17136001-1.2513601-.28080002-.6249601-1.2729601-.9475201-1.91808015-1.1649601-.17424001-.04176-.34560003-.10656-.49824004-.17136-1.59408013-.6264001-1.81008014-1.3392002-1.72368014-1.8331202.12960001-.68976.97056008-1.1419201 1.68192014-1.1419201.21024001 0 .38880003.04176.55152004.10656.60480005.27936 1.13616009.4320001 1.58976013.4320001.33696002 0 .55296004-.0864.66960005-.1512001l-.06624001-.81936c-.14112001-2.3414402-.32400002-5.25744044.44208004-6.96528057 2.21616013-5.07888041 7.03584053-5.46768044 8.45856063-5.46768044l.6033601-.0216h.0864z" fill="#fff" transform="translate(.4 .2)"/></svg>