<svg height="62" viewBox="0 0 72 62" width="72" xmlns="http://www.w3.org/2000/svg"><g fill="none"><path d="m64.6767961 11.7111993h-3.9023997v49.984797h3.9023997c4.0423998 0 7.3231996-3.2519998 7.3231996-7.2943995v-35.3959979c0-4.0423998-3.2815998-7.2943996-7.3231996-7.2943996zm-12.2015992-.5824v-4.70319968c0-3.16879981-2.5391999-5.72239966-5.7079997-5.72239966h-22.6551986c-3.1687998 0-5.7223997 2.55359985-5.7223997 5.72239966v4.70319968c0 .1912.0112.396.0296.5824h-4.2807997v49.984797h43.5055974v-49.984797h-5.1983997c.0184-.1864.0296-.3912.0296-.5824zm-28.8439983-4.19359971c0-.47519998.104-.62639997.4808-.62639997h22.6551986c.376 0 .4656.1504.4656.62639997v4.77519971h-23.6015986zm-1.5583999 12.88559921c2.0927999 0 3.7855998 1.6927999 3.7855998 3.7855998s-1.6935999 3.7855998-3.7855998 3.7855998-3.7855998-1.6927999-3.7855998-3.7855998 1.6935999-3.7855998 3.7855998-3.7855998zm-6.1007997 15.6375991c0-2.0919999 1.7079999-3.7855998 3.7999998-3.7855998 2.0927999 0 3.7855998 1.6935999 3.7855998 3.7855998s-1.6935999 3.8007998-3.7855998 3.8007998c-2.0911999 0-3.7999998-1.7087999-3.7999998-3.8007998zm21.9423987 17.137599-2.8535998 4.9503997c-.2128.3687999-.6791999.4895999-1.0479999.2768l-14.6479992-8.4599995c-.3687999-.2128-.4895999-.68-.2767999-1.048l2.8535998-4.9503997c.1336-.2304.3656-.3608.6112-.3784.1479999-.0112.2991999.0216.4367999.1016l14.6471992 8.4591995c.3703999.2136.4903999.68.2775999 1.0488zm15.4919991-31.2895982c.2136.3688.0784.8352-.2904 1.0488l-14.6479991 8.4447995c-.3688.2136-.8351999.092-1.0487999-.2768l-2.8535999-4.9503997c-.2127999-.3696-.092-.8352.2768-1.0488l14.6479992-8.4447995c.0927999-.0536.1919999-.0896.2911999-.1016.2968-.0368.5968.1024.7568.3792z" fill="#000"/><path d="m48.1071971 50.790397c-3.3663998 0-6.1007996-2.7351999-6.1007996-6.1007997 0-3.3663998 2.7343998-6.1007996 6.1007996-6.1007996 3.3655998 0 6.0855997 2.7343998 6.0855997 6.1007996 0 3.3655998-2.7199999 6.1007997-6.0855997 6.1007997z" fill="#fe0002"/><path d="m0 19.0055989v35.3959979c0 4.0431997 3.25199981 7.2943995 7.29439957 7.2943995h3.68399973v-49.984797h-3.68399973c-4.04239976 0-7.29439957 3.2519998-7.29439957 7.2943996z" fill="#000"/></g></svg>