<svg height="30" viewBox="0 0 35 30" width="35" xmlns="http://www.w3.org/2000/svg"><path d="m34.4937627 3.69936029c-1.2744001.56016005-2.6352002.94176008-4.0680003 1.11600009 1.4601601-.87984007 2.5833602-2.26656018 3.1147203-3.92112031-1.3694401.79920006-2.8872003 1.38096011-4.5028804 1.70496014-1.2902401-1.38096011-3.1291202-2.24496018-5.1710404-2.24496018-3.9124803 0-7.0848006 3.17232025-7.0848006 7.08048056 0 .56160005.0648 1.10160009.18288 1.61856013-5.8896004-.27792002-11.10960083-3.10608025-14.60304111-7.38144059-.61488005 1.03968009-.95904008 2.24784018-.95904008 3.56400029 0 2.46240019 1.2528001 4.62672036 3.15072025 5.89824048-1.16208009-.03744-2.25504018-.35712-3.20832025-.8870401v.08784c0 3.4344003 2.43792019 6.2985605 5.68224045 6.9508806-.59472005.15984-1.2225601.24624-1.86624015.24624-.45216004 0-.88560007-.0432-1.3190401-.12384.90864007 2.8123202 3.52080028 4.8628804 6.62976049 4.9204804-2.41920016 1.8993601-5.4849604 3.0312002-8.78688067 3.0312002-.56160004 0-1.12176008-.03312-1.68480013-.09648 3.15216025 2.0073602 6.86592055 3.1809603 10.8820809 3.1809603 13.037761 0 20.1585616-10.7942409 20.1585616-20.13984164 0-.30096002 0-.60480005-.0216-.90720007 1.3838401-.99216008 2.5920002-2.24640018 3.5424002-3.66912029z" fill="#fff" transform="translate(0 .6)"/></svg>