<?xml version="1.0" standalone="no"?>
<!DOCTYPE svg PUBLIC "-//W3C//DTD SVG 20010904//EN"
 "http://www.w3.org/TR/2001/REC-SVG-20010904/DTD/svg10.dtd">
<svg version="1.0" xmlns="http://www.w3.org/2000/svg"
 width="1025.000000pt" height="831.000000pt" viewBox="0 0 1025.000000 831.000000"
 preserveAspectRatio="xMidYMid meet">

<g transform="translate(0.000000,831.000000) scale(0.100000,-0.100000)"
fill="#000000" stroke="none">
<path d="M4955 6340 c-455 -47 -863 -239 -1204 -566 -356 -341 -551 -739 -602
-1223 -16 -159 -7 -454 20 -596 43 -230 77 -324 238 -653 75 -153 151 -251
354 -452 277 -275 329 -346 451 -613 78 -170 97 -197 143 -197 71 0 104 63 80
154 -35 134 -109 291 -206 437 -43 64 -120 152 -239 274 -197 202 -269 287
-360 425 -233 355 -320 726 -279 1195 20 230 62 383 161 578 235 463 601 785
1071 942 330 110 684 124 1027 39 215 -53 442 -159 622 -289 155 -113 385
-357 493 -523 168 -261 290 -723 271 -1028 -21 -336 -122 -649 -293 -914 -74
-113 -113 -161 -268 -320 -223 -230 -342 -396 -471 -656 -78 -158 -91 -208
-65 -257 27 -51 112 -75 144 -39 8 9 46 85 83 167 130 286 167 340 412 597
181 190 233 252 325 393 272 417 372 888 300 1415 -57 426 -244 800 -558 1116
-331 333 -678 511 -1125 579 -129 19 -404 27 -525 15z"/>
</g>
</svg>
